<?xml version="1.0" encoding="UTF-8"?><svg id="Layer_1" xmlns="http://www.w3.org/2000/svg" viewBox="0 0 287.89 272.57"><defs><style>.cls-1,.cls-2,.cls-3,.cls-4{fill:#231f20;}.cls-2,.cls-3,.cls-4,.cls-5{stroke:#231f20;stroke-miterlimit:10;}.cls-2,.cls-5{stroke-width:8px;}.cls-3{font-size:50px;stroke-width:3px;}.cls-3,.cls-4{font-family:MyriadPro-Regular, 'Myriad Pro';}.cls-4{font-size:150px;}.cls-5{fill:none;}</style></defs><path class="cls-5" d="M241.65,225.14c-24.81,26.6-61.46,43.43-102.35,43.43-74.72,0-135.3-56.21-135.3-125.55S64.57,17.48,139.3,17.48c67.59,0,123.61,46,133.68,106.1"/><polyline class="cls-1" points="89.92 0 188.68 0 188.68 26.1 139.3 17.48 89.92 26.1"/><line class="cls-2" x1="139.3" y1="17.48" x2="139.09" y2="46.31"/><line class="cls-2" x1="139.19" y1="242.13" x2="138.98" y2="270.97"/><line class="cls-5" x1="4" y1="139.21" x2="32.83" y2="139.43"/><line class="cls-2" x1="46.92" y1="50.09" x2="67.16" y2="70.63"/><line class="cls-2" x1="208.14" y1="213.53" x2="228.38" y2="234.07"/><line class="cls-2" x1="213.98" y1="70.48" x2="234.52" y2="50.24"/><line class="cls-5" x1="50.04" y1="236.35" x2="70.58" y2="216.11"/><text class="cls-4" transform="translate(57.04 190.56)"><tspan x="0" y="0">90</tspan></text><text class="cls-3" transform="translate(208.14 185.29)"><tspan x="0" y="0">SEC</tspan></text></svg>